PathFileType	4	(X/Y/Z)	 s05c0001.trc
DataRate	CameraRate	NumFrames	NumMarkers	Units	OrigDataRate	OrigDataStartFrame	OrigNumFrames
200	200	4	49	mm	200	751	2000
Frame#	Time	racr			lacr			c7			jug			rlel			rdr			llel			ldr			s2			lic			ric			lasi			rasi			rpsi			lpsi			rgt			lgt			rth1			rth2			rth3			rth4			rlfc			rmfc			rsh1			rsh2			rsh3			rsh4			rlmal			rmmal			rcal			rtoe			rmt5			rmt1			lth1			lth2			lth4			lth3			llfc			lmfc			lsh1			lsh2			lsh3			lsh4			llmal			lmmal			lcal			ltoe			lmt1			lmt5			
		X1	Y1	Z1	X2	Y2	Z2	X3	Y3	Z3	X4	Y4	Z4	X5	Y5	Z5	X6	Y6	Z6	X7	Y7	Z7	X8	Y8	Z8	X9	Y9	Z9	X10	Y10	Z10	X11	Y11	Z11	X12	Y12	Z12	X13	Y13	Z13	X14	Y14	Z14	X15	Y15	Z15	X16	Y16	Z16	X17	Y17	Z17	X18	Y18	Z18	X19	Y19	Z19	X20	Y20	Z20	X21	Y21	Z21	X22	Y22	Z22	X23	Y23	Z23	X24	Y24	Z24	X25	Y25	Z25	X26	Y26	Z26	X27	Y27	Z27	X28	Y28	Z28	X29	Y29	Z29	X30	Y30	Z30	X31	Y31	Z31	X32	Y32	Z32	X33	Y33	Z33	X34	Y34	Z34	X35	Y35	Z35	X36	Y36	Z36	X37	Y37	Z37	X38	Y38	Z38	X39	Y39	Z39	X40	Y40	Z40	X41	Y41	Z41	X42	Y42	Z42	X43	Y43	Z43	X44	Y44	Z44	X45	Y45	Z45	X46	Y46	Z46	X47	Y47	Z47	X48	Y48	Z48	X49	Y49	Z49	
751	3.7550	268.867293	1528.132726	348.172137	256.852771	1534.943294	1.946476	203.012528	1571.093348	170.998283	346.160756	1484.146887	170.115701	236.737205	1281.649345	533.034629	306.112888	1136.827087	741.899012	202.917971	1292.434211	-194.207538	235.374479	1156.920585	-431.592986	178.109084	1035.736718	180.607752	319.721590	1095.166399	30.933296	322.478067	1076.368707	316.631827	372.534393	1029.256336	63.087446	379.062750	1020.148246	284.457688	201.824480	1068.222808	223.801208	199.278678	1072.207129	134.593546	273.141202	923.208562	334.548398	245.578498	953.803158	10.421467	276.291411	824.918417	350.821471	288.161521	735.947644	349.879657	253.681640	655.917068	338.021505	324.659733	732.269129	341.228157	256.162518	507.466515	312.331271	248.785734	506.757627	211.358726	202.857749	410.141281	339.979448	218.019175	322.534964	330.913373	190.089524	242.191805	323.652155	250.372471	323.064741	308.131487	187.176109	109.616321	305.751828	212.921794	124.586932	227.847480	136.835074	62.407702	249.240793	424.700896	80.988010	309.452427	317.313987	44.849546	355.999781	350.578109	47.176389	242.548597	262.722669	821.983273	-10.911687	284.875095	739.190668	-4.845236	320.846562	738.939763	7.381021	259.438930	652.412110	6.223215	247.035616	516.885011	38.930165	239.861777	509.184206	138.896687	195.868526	400.162354	12.835530	210.840213	314.087980	22.928801	179.231007	231.155790	27.225579	243.085377	313.861247	43.468885	183.243779	108.852383	41.863074	211.866912	127.589387	115.180012	136.940118	57.412530	94.063934	425.049126	79.379305	39.350990	351.267876	48.175533	106.059509	312.848631	38.241165	-5.450349	
752	3.7600	268.880387	1528.136836	348.173614	256.883575	1534.933685	1.937942	203.008057	1571.093124	171.026419	346.168700	1484.152483	170.124382	236.767729	1281.649740	533.037432	306.125014	1136.838245	741.899116	202.939543	1292.443276	-194.195219	235.395392	1156.890905	-431.580340	178.118273	1035.743019	180.612185	319.728193	1095.167078	30.940278	322.490093	1076.363971	316.651481	372.532980	1029.226949	63.073192	379.066012	1020.128360	284.475107	201.834234	1068.219468	223.804798	199.294874	1072.204662	134.598785	273.126780	923.195755	334.556765	245.594638	953.799732	10.427000	276.293343	824.916271	350.813398	288.161788	735.950978	349.874548	253.673183	655.935153	338.034729	324.644132	732.256893	341.246367	256.169949	507.461468	312.325200	248.809028	506.766828	211.377316	202.835700	410.140687	339.987640	218.028401	322.531677	330.951862	190.095415	242.191689	323.652947	250.371425	323.049063	308.121712	187.172617	109.623622	305.745766	212.919691	124.592098	227.847634	136.832377	62.421158	249.241398	424.704107	80.987826	309.458521	317.314543	44.853450	356.012240	350.587584	47.183741	242.537294	262.737041	821.980565	-10.910146	284.890693	739.192168	-4.828884	320.852822	738.944230	7.380950	259.443659	652.450302	6.248895	247.047835	516.871510	38.942446	239.849572	509.173242	138.889134	195.885717	400.146567	12.840061	210.833656	314.078903	22.933031	179.238958	231.156615	27.243484	243.087221	313.846694	43.465458	183.243346	108.844956	41.870185	211.881616	127.584683	115.192530	136.945497	57.412506	94.061118	425.062861	79.361326	39.352457	351.251565	48.185174	106.043408	312.843014	38.238271	-5.438398	
753	3.7650	268.889631	1528.138571	348.173823	256.905547	1534.930102	1.956784	203.038077	1571.093252	171.003951	346.179783	1484.157032	170.125525	236.766728	1281.659343	533.043678	306.130008	1136.841147	741.903915	202.957640	1292.419416	-194.177735	235.424257	1156.865914	-431.559764	178.104248	1035.744462	180.603835	319.741563	1095.165073	30.950623	322.492696	1076.361114	316.634331	372.544186	1029.238518	63.095734	379.075710	1020.141389	284.478355	201.832953	1068.240995	223.811562	199.295712	1072.208141	134.598323	273.131089	923.213676	334.550203	245.603467	953.802329	10.419401	276.297276	824.907046	350.808891	288.155002	735.941247	349.889195	253.669323	655.940623	338.038206	324.644735	732.260497	341.243977	256.158503	507.462755	312.320479	248.765484	506.763017	211.361152	202.839886	410.135306	339.983762	218.031076	322.525575	330.952824	190.074850	242.183452	323.661723	250.379865	323.062479	308.132688	187.186441	109.610947	305.749712	212.921897	124.587041	227.847614	136.825986	62.426443	249.238700	424.701862	80.981223	309.464694	317.323604	44.855891	356.004348	350.586511	47.187420	242.535091	262.760338	821.981693	-10.894245	284.902099	739.175399	-4.821320	320.882277	738.929458	7.400036	259.449860	652.416672	6.240346	247.037722	516.881197	38.950187	239.854454	509.171229	138.890179	195.904957	400.127075	12.874456	210.855000	314.074997	22.944661	179.249130	231.154069	27.233255	243.092100	313.862259	43.473571	183.243349	108.844948	41.870183	211.874308	127.598040	115.198920	136.951627	57.405558	94.068429	425.061497	79.371964	39.365804	351.264875	48.197149	106.045054	312.842287	38.252881	-5.450525	
754	3.7700	268.888438	1528.136121	348.181266	256.914599	1534.938028	1.980984	203.045883	1571.103138	170.988760	346.185464	1484.145356	170.142452	236.747068	1281.653284	533.054518	306.133050	1136.842107	741.916652	202.986040	1292.416512	-194.186528	235.437949	1156.858522	-431.549968	178.113525	1035.733940	180.598277	319.746056	1095.170664	30.947609	322.488835	1076.364236	316.645144	372.557001	1029.246349	63.104366	379.085390	1020.133994	284.497384	201.830360	1068.232079	223.826279	199.305532	1072.214164	134.604590	273.122886	923.206577	334.554297	245.618642	953.808474	10.431886	276.286872	824.913208	350.795146	288.141581	735.954081	349.882972	253.662792	655.935480	338.030391	324.647416	732.254126	341.237629	256.151432	507.456803	312.330213	248.774177	506.750816	211.363890	202.839825	410.139502	339.990503	218.020386	322.533176	330.942866	190.086674	242.185641	323.661213	250.367493	323.048271	308.128011	187.188578	109.611243	305.749296	212.921581	124.585537	227.848714	136.833561	62.418714	249.234462	424.714751	80.987172	309.463233	317.328810	44.842738	355.997639	350.591112	47.177135	242.546248	262.763832	821.983564	-10.892129	284.911106	739.191168	-4.841281	320.888821	738.930657	7.397252	259.470056	652.421505	6.236659	247.047269	516.875623	38.964615	239.852974	509.174814	138.897556	195.899663	400.122875	12.863351	210.856203	314.081392	22.929852	179.252961	231.143242	27.240972	243.086832	313.853293	43.490125	183.254037	108.855584	41.864779	211.877491	127.587398	115.197692	136.953555	57.402233	94.063796	425.053463	79.386019	39.357364	351.276153	48.182442	106.042886	312.840315	38.237819	-5.424217	
